<svg xmlns="http://www.w3.org/2000/svg" width="1200" height="630" viewBox="0 0 1200 630" role="img" aria-labelledby="title desc">
  <title id="title">Pedro Barbas evidence-first systems</title>
  <desc id="desc">OpenGraph card for Pedro Barbas evidence-first intelligence systems.</desc>
  <rect width="1200" height="630" fill="#101419"/>
  <g opacity="0.22" stroke="#536474" stroke-width="1">
    <path d="M0 90h1200M0 180h1200M0 270h1200M0 360h1200M0 450h1200M0 540h1200"/>
    <path d="M100 0v630M200 0v630M300 0v630M400 0v630M500 0v630M600 0v630M700 0v630M800 0v630M900 0v630M1000 0v630M1100 0v630"/>
  </g>
  <rect x="84" y="78" width="96" height="96" rx="18" fill="#102027" stroke="#2b3a43"/>
  <path d="M106 110h52M106 126h52M106 142h52" stroke="#5cc8bb" stroke-width="5" stroke-linecap="round"/>
  <circle cx="114" cy="110" r="7" fill="#f1f7f8"/>
  <circle cx="132" cy="126" r="7" fill="#d3a44d"/>
  <circle cx="150" cy="142" r="7" fill="#89a8e8"/>
  <text x="84" y="238" fill="#f1f7f8" font-family="Arial, Helvetica, sans-serif" font-size="72" font-weight="700">Pedro Barbas</text>
  <text x="84" y="315" fill="#5cc8bb" font-family="Arial, Helvetica, sans-serif" font-size="34" font-weight="700">Evidence-first intelligence systems</text>
  <text x="84" y="398" fill="#a8b6c2" font-family="Arial, Helvetica, sans-serif" font-size="34">Procurement intelligence. AI control. Engineering evidence.</text>
  <text x="84" y="500" fill="#f1f7f8" font-family="Arial, Helvetica, sans-serif" font-size="40" font-weight="700">Architecture first. Evidence always. No proof, no claim.</text>
</svg>
