<svg xmlns="http://www.w3.org/2000/svg" width="620" height="360" viewBox="0 0 620 360" role="img" aria-labelledby="title desc">
  <title id="title">Procurement evidence chain</title>
  <desc id="desc">An abstract procurement flow where early signals become project identity, evidence chain, procurement realization, and review context.</desc>
  <rect width="620" height="360" rx="18" fill="#101419"/>
  <g stroke="#2b3a43" stroke-width="1" opacity="0.72">
    <path d="M50 70h520M50 290h520"/>
    <path d="M50 70v220M570 70v220"/>
  </g>
  <path d="M86 180c54-64 105-64 153 0s97 64 148 0 98-64 149 0" fill="none" stroke="#5cc8bb" stroke-width="4" stroke-linecap="round"/>
  <g font-family="Arial, Helvetica, sans-serif" text-anchor="middle">
    <g>
      <circle cx="86" cy="180" r="38" fill="#17222a" stroke="#5cc8bb" stroke-width="3"/>
      <text x="86" y="175" fill="#edf4f7" font-size="19" font-weight="700">Early</text>
      <text x="86" y="199" fill="#edf4f7" font-size="19" font-weight="700">signal</text>
    </g>
    <g>
      <rect x="165" y="137" width="112" height="86" rx="12" fill="#17222a" stroke="#89a8e8" stroke-width="3"/>
      <text x="221" y="174" fill="#edf4f7" font-size="18" font-weight="700">Project</text>
      <text x="221" y="198" fill="#edf4f7" font-size="18" font-weight="700">identity</text>
    </g>
    <g>
      <rect x="318" y="126" width="118" height="108" rx="12" fill="#17222a" stroke="#d3a44d" stroke-width="3"/>
      <path d="M342 154h70M342 180h70M342 206h48" stroke="#d3a44d" stroke-width="3" stroke-linecap="round"/>
      <text x="377" y="269" fill="#edf4f7" font-size="18" font-weight="700">Evidence chain</text>
    </g>
    <g>
      <path d="M505 127l53 31v62l-53 31-53-31v-62z" fill="#17222a" stroke="#5cc8bb" stroke-width="3"/>
      <text x="505" y="174" fill="#edf4f7" font-size="17" font-weight="700">Procurement</text>
      <text x="505" y="198" fill="#edf4f7" font-size="17" font-weight="700">realization</text>
    </g>
    <g>
      <rect x="180" y="40" width="260" height="52" rx="8" fill="#1e2930" stroke="#2b3a43"/>
      <text x="310" y="73" fill="#edf4f7" font-size="20" font-weight="700">Review context</text>
    </g>
  </g>
</svg>
