<svg xmlns="http://www.w3.org/2000/svg" width="620" height="360" viewBox="0 0 620 360" role="img" aria-labelledby="title desc">
  <title id="title">Simulation review pack</title>
  <desc id="desc">An abstract baseline and candidate comparison that produces delta, threshold checks, and a review pack.</desc>
  <rect width="620" height="360" rx="18" fill="#101419"/>
  <g stroke="#2b3a43" stroke-width="1" opacity="0.7">
    <path d="M52 62h516M52 300h516"/>
    <path d="M52 62v238M568 62v238"/>
  </g>
  <g font-family="Arial, Helvetica, sans-serif" text-anchor="middle">
    <rect x="64" y="96" width="136" height="112" rx="12" fill="#17222a" stroke="#89a8e8" stroke-width="3"/>
    <path d="M86 174c22-58 48-58 72 0 8 19 17 27 26 24" fill="none" stroke="#89a8e8" stroke-width="4" stroke-linecap="round"/>
    <text x="132" y="244" fill="#edf4f7" font-size="20" font-weight="700">Baseline</text>
    <rect x="242" y="96" width="136" height="112" rx="12" fill="#17222a" stroke="#5cc8bb" stroke-width="3"/>
    <path d="M264 172c23-42 45-65 69-18 13 25 22 42 34 38" fill="none" stroke="#5cc8bb" stroke-width="4" stroke-linecap="round"/>
    <text x="310" y="244" fill="#edf4f7" font-size="20" font-weight="700">Candidate</text>
    <circle cx="442" cy="152" r="42" fill="#17222a" stroke="#d3a44d" stroke-width="3"/>
    <text x="442" y="146" fill="#edf4f7" font-size="19" font-weight="700">Delta</text>
    <text x="442" y="171" fill="#edf4f7" font-size="19" font-weight="700">map</text>
    <rect x="475" y="218" width="106" height="54" rx="8" fill="#17222a" stroke="#5cc8bb" stroke-width="3"/>
    <text x="528" y="252" fill="#edf4f7" font-size="18" font-weight="700">Review pack</text>
    <rect x="412" y="52" width="126" height="48" rx="8" fill="#1e2930" stroke="#2b3a43"/>
    <text x="475" y="83" fill="#edf4f7" font-size="19" font-weight="700">Thresholds</text>
  </g>
  <path d="M380 152h18M442 194v18M475 100v22M475 194v24" stroke="#d3a44d" stroke-width="3" stroke-linecap="round" stroke-dasharray="7 7"/>
</svg>
